<svg xmlns="http://www.w3.org/2000/svg" xmlns:xlink="http://www.w3.org/1999/xlink" width="940px" height="440px" viewBox="0 0 940 440" preserveAspectRatio="xMidYMid meet"  xmlns:drawsvg="http://www.drawsvg.org"><rect id="svgEditorBackground" x="0" y="0" width="940" height="440" style="fill: none; stroke: none;"/><defs id="svgEditorDefs"><polygon id="svgEditorShapeDefs" style="fill:rosybrown;stroke:black;vector-effect:non-scaling-stroke;stroke-width:1px;"/><symbol xmlns="http://www.w3.org/2000/svg" id="f2f9" preserveAspectRatio="xMidYMid meet" viewBox="0 0 512 512"><path d="M256.455 8c66.269.119 126.437 26.233 170.859 68.685l35.715-35.715C478.149 25.851 504 36.559 504 57.941V192c0 13.255-10.745 24-24 24H345.941c-21.382 0-32.09-25.851-16.971-40.971l41.75-41.75c-30.864-28.899-70.801-44.907-113.23-45.273-92.398-.798-170.283 73.977-169.484 169.442C88.764 348.009 162.184 424 256 424c41.127 0 79.997-14.678 110.629-41.556 4.743-4.161 11.906-3.908 16.368.553l39.662 39.662c4.872 4.872 4.631 12.815-.482 17.433C378.202 479.813 319.926 504 256 504 119.034 504 8.001 392.967 8 256.002 7.999 119.193 119.646 7.755 256.455 8z"/></symbol><polygon id="svgEditorIconDefs" style="fill:rosybrown;"/></defs><text dy="-0.5em" style="fill:black;font-family:Arial;font-size:20px;" id="e3_text">UP</text><text dy="-0.5em" style="fill:black;font-family:Arial;font-size:20px;" id="e5_text">U</text><text dy="-0.5em" style="fill:black;font-family:Arial;font-size:20px;" id="e8_text"><textPath id="e7_textPath" xlink:href="#e1_shape" startOffset="0" method="align" spacing="exact">T</textPath></text><use xlink:href="#f2f9" x="402" y="134" width="308" height="308" id="e9_icon" style="fill:firebrick;fill-opacity:1;" transform="matrix(-0.472316 -0.881429 0.881429 -0.472316 561.912 902.774)"/><switch xmlns:drawsvg="http://www.drawsvg.org" drawsvg:ctype="text-multi-lang" style="fill:black;font-family:Arial;font-size:20px;" allowReorder="yes" id="e11_switch" transform="matrix(4.02912 0 0 4.02912 497.285 324.978)"><text systemLanguage="en" drawsvg:ctype="text-multi-lang" xml:lang="en" x="0" y="0" id="e10_texte" style="font-family:verdana;">UP</text></switch></svg>